<?xml version="1.0" standalone="no"?><!DOCTYPE svg PUBLIC "-//W3C//DTD SVG 1.1//EN" "http://www.w3.org/Graphics/SVG/1.1/DTD/svg11.dtd"><svg t="1715838351564" class="icon" viewBox="0 0 1024 1024" version="1.1" xmlns="http://www.w3.org/2000/svg" p-id="14732" xmlns:xlink="http://www.w3.org/1999/xlink" width="200" height="200"><path d="M1023.914667 952.064H0V169.130667h1023.914667v782.933333zM59.733333 892.416h904.533334V228.778667H59.733333v663.637333z" fill="#5D8BE7" p-id="14733"></path><path d="M994.048 714.922667a30.037333 30.037333 0 0 1-22.357333-10.069334l-101.034667-113.664L734.72 707.754667a29.952 29.952 0 0 1-38.912-0.170667l-313.173333-270.592L62.890667 678.741333a30.122667 30.122667 0 0 1-41.813334-5.802666 30.037333 30.037333 0 0 1 5.802667-41.898667l339.029333-256.085333a29.610667 29.610667 0 0 1 37.546667 1.365333l311.978667 269.482667 138.752-119.04a30.037333 30.037333 0 0 1 41.642666 2.901333l120.490667 135.594667a29.781333 29.781333 0 0 1-22.272 49.664z" fill="#5D8BE7" p-id="14734"></path><path d="M685.056 432.384m-56.405333 0a56.405333 56.405333 0 1 0 112.810666 0 56.405333 56.405333 0 1 0-112.810666 0Z" fill="#5D8BE7" p-id="14735"></path></svg>