<?xml version="1.0" standalone="no"?><!DOCTYPE svg PUBLIC "-//W3C//DTD SVG 1.1//EN" "http://www.w3.org/Graphics/SVG/1.1/DTD/svg11.dtd"><svg t="1715838173014" class="icon" viewBox="0 0 1024 1024" version="1.1" xmlns="http://www.w3.org/2000/svg" p-id="12888" xmlns:xlink="http://www.w3.org/1999/xlink" width="200" height="200"><path d="M590.4384 607.8464h110.592c16.7936 0 29.9008-13.1072 29.9008-29.9008s-13.1072-29.9008-29.9008-29.9008h-110.592c-16.7936 0-29.9008 13.1072-29.9008 29.9008 0.2048 16.7936 13.312 29.9008 29.9008 29.9008z m0 119.1936h110.592c16.7936 0 29.9008-13.1072 29.9008-29.9008s-13.1072-29.9008-29.9008-29.9008h-110.592c-16.7936 0-29.9008 13.1072-29.9008 29.9008 0.2048 16.7936 13.312 29.9008 29.9008 29.9008z m185.344-526.336h-78.4384V170.8032c0-16.7936-13.1072-29.9008-29.9008-29.9008s-29.9008 13.1072-29.9008 29.9008V200.704H399.1552V170.8032c0-16.7936-13.1072-29.9008-29.9008-29.9008s-29.9008 13.1072-29.9008 29.9008V200.704h-68.4032c-65.536 0-119.1936 53.6576-119.1936 119.1936v463.6672c0 65.536 53.6576 119.1936 119.1936 119.1936h504.4224c65.536 0 119.1936-53.6576 119.1936-119.1936V319.8976c0.4096-65.536-53.248-119.1936-118.784-119.1936z m59.5968 582.8608c0 32.768-26.8288 59.5968-59.5968 59.5968H271.1552c-32.768 0-59.5968-26.8288-59.5968-59.5968V439.0912h623.8208v344.4736z m0-404.0704H211.5584v-59.5968c0-32.768 26.8288-59.5968 59.5968-59.5968h68.4032v29.9008c0 16.7936 13.1072 29.9008 29.9008 29.9008s29.9008-13.1072 29.9008-29.9008v-29.9008h238.592v29.9008c0 16.7936 13.1072 29.9008 29.9008 29.9008s29.9008-13.1072 29.9008-29.9008v-29.9008H776.192c32.768 0 59.5968 26.8288 59.5968 59.5968v59.5968zM330.1376 727.04h110.592c16.7936 0 29.9008-13.1072 29.9008-29.9008s-13.1072-29.9008-29.9008-29.9008h-110.592c-16.7936 0-29.9008 13.1072-29.9008 29.9008S313.344 727.04 330.1376 727.04z m0-119.1936h110.592c16.7936 0 29.9008-13.1072 29.9008-29.9008s-13.1072-29.9008-29.9008-29.9008h-110.592c-16.7936 0-29.9008 13.1072-29.9008 29.9008s13.1072 29.9008 29.9008 29.9008z" p-id="12889"></path></svg>