<?xml version="1.0" encoding="UTF-8"?>
<svg width="15px" height="14px" viewBox="0 0 15 14" version="1.1" xmlns="http://www.w3.org/2000/svg" xmlns:xlink="http://www.w3.org/1999/xlink">
    <title>Feedback</title>
    <g id="页面-2" stroke="none" stroke-width="1" fill="none" fill-rule="evenodd">
        <g id="画板" transform="translate(-1478, -279)" fill="#3270FF" fill-rule="nonzero">
            <g id="编组-78" transform="translate(152, 184)">
                <g id="截屏2024-03-14-下午3.42.42" transform="translate(324, 73)">
                    <g id="编组-21" transform="translate(810, 18)">
                        <g id="编组-9" transform="translate(192, 0)">
                            <g id="编组" transform="translate(0, 4)">
                                <path d="M13.8348214,0 L1.16598214,0 C0.522589286,0 0,0.525076668 0,1.17335568 L0,9.80605345 C0,10.4537991 0.522589286,10.9802091 1.16598214,10.9802091 L4.38160714,10.9802091 L7.29375,13.9135984 C7.35160714,13.9711995 7.42553571,14 7.5,14 C7.575,14 7.64973214,13.9711995 7.70625,13.9143984 L10.6186607,10.9802091 L13.8348214,10.9802091 C14.4779464,10.9802091 15,10.4543325 15,9.80605345 L15,1.17335568 C15,0.525076668 14.4784821,0 13.8348214,0 L13.8348214,0 L13.8348214,0 M13.9170536,1.14828854 L13.9170536,9.65351721 L10.8388393,9.65351721 C10.4110714,9.65351721 10.0009821,9.82472047 9.69830357,10.1297929 L7.5,12.3445018 L5.30276786,10.1297929 C5.00008929,9.82418713 4.58892857,9.65325054 4.16116071,9.65325054 L1.08401786,9.65325054 L1.08401786,1.14828854 L13.9170536,1.14828854 L13.9170536,1.14828854 Z M3.01767857,5.51077163 C3.01767857,4.95449437 3.465,4.50355245 4.01651786,4.50355245 C4.56857143,4.50355245 5.01535714,4.95449437 5.01535714,5.51077163 C5.01535714,6.06571554 4.56830357,6.51692413 4.01651786,6.51692413 C3.465,6.51692413 3.01767857,6.06571554 3.01767857,5.51077163 L3.01767857,5.51077163 L3.01767857,5.51077163 M6.50116071,5.51077163 C6.50116071,4.95449437 6.94848214,4.50355245 7.5,4.50355245 C8.05258929,4.50355245 8.49883929,4.95449437 8.49883929,5.51077163 C8.49883929,6.06571554 8.05258929,6.51692413 7.5,6.51692413 C6.94821429,6.51692413 6.50116071,6.06571554 6.50116071,5.51077163 L6.50116071,5.51077163 M10.010625,5.51077163 C10.010625,4.95449437 10.4579464,4.50355245 11.0089286,4.50355245 C11.5615179,4.50355245 12.0088393,4.95449437 12.0088393,5.51077163 C12.0088393,6.06571554 11.5615179,6.51692413 11.0089286,6.51692413 C10.4579464,6.51692413 10.010625,6.06571554 10.010625,5.51077163 L10.010625,5.51077163 L10.010625,5.51077163" id="Feedback"></path>
                            </g>
                        </g>
                    </g>
                </g>
            </g>
        </g>
    </g>
</svg>