<?xml version="1.0" encoding="UTF-8"?>
<svg width="14px" height="14px" viewBox="0 0 14 14" version="1.1" xmlns="http://www.w3.org/2000/svg" xmlns:xlink="http://www.w3.org/1999/xlink">
    <title>Help</title>
    <g id="页面-2" stroke="none" stroke-width="1" fill="none" fill-rule="evenodd">
        <g id="画板" transform="translate(-1404, -279)" fill="#3270FF" fill-rule="nonzero">
            <g id="编组-78" transform="translate(152, 184)">
                <g id="截屏2024-03-14-下午3.42.42" transform="translate(324, 73)">
                    <g id="编组-21" transform="translate(810, 18)">
                        <g id="编组-15" transform="translate(118, 0)">
                            <path d="M7,4 C10.8660093,4 14,7.13399074 14,11 C14,14.8660093 10.8660093,18 7,18 C3.13399074,18 0,14.8660093 0,11 C0,7.13399074 3.13399074,4 7,4 Z M7,5.03703704 C3.70675926,5.03703704 1.03703704,7.70675926 1.03703704,11 C1.03703704,14.2932407 3.70675926,16.962963 7,16.962963 C10.2932407,16.962963 12.962963,14.2932407 12.962963,11 C12.962963,7.70675926 10.2932407,5.03703704 7,5.03703704 Z M6.98314815,13.5446296 C7.22814815,13.5446296 7.43814815,13.6146296 7.60148148,13.777963 C7.76481481,13.9296296 7.84648148,14.127963 7.84648148,14.372963 C7.84648148,14.617963 7.75314815,14.8162963 7.58981481,14.9796296 C7.42648148,15.1312963 7.21648148,15.212963 6.98314815,15.212963 C6.74981481,15.212963 6.53981481,15.1312963 6.37648148,14.967963 C6.21314815,14.8046296 6.13148148,14.6062963 6.13148148,14.372963 C6.13148148,14.127963 6.21314815,13.9296296 6.37648148,13.777963 C6.53981481,13.6146296 6.74981481,13.5446296 6.98314815,13.5446296 Z M7.19314815,6.71962963 C7.93981481,6.71962963 8.54648148,6.91796296 9.01314815,7.33796296 C9.47981481,7.7462963 9.71314815,8.3062963 9.71314815,9.0062963 C9.71314815,9.57796296 9.56148148,10.0562963 9.26981481,10.4296296 C9.16481481,10.557963 8.83814815,10.8612963 8.28981481,11.3396296 C8.06814815,11.5262963 7.90481481,11.7362963 7.79981481,11.9462963 C7.67148148,12.1796296 7.61314815,12.4362963 7.61314815,12.7162963 L7.61314815,12.9146296 L6.36481481,12.9146296 L6.36481481,12.7162963 C6.36481481,12.2846296 6.43481481,11.9112963 6.59814815,11.607963 C6.74981481,11.2812963 7.19314815,10.802963 7.91648148,10.1612963 L8.11481481,9.93962963 C8.32481481,9.6712963 8.44148148,9.3912963 8.44148148,9.08796296 C8.44148148,8.67962963 8.32481481,8.36462963 8.10314815,8.1312963 C7.86981481,7.89796296 7.53148148,7.7812963 7.11148148,7.7812963 C6.58648148,7.7812963 6.20148148,7.94462963 5.96814815,8.28296296 C5.75814815,8.56296296 5.65314815,8.95962963 5.65314815,9.47296296 L4.42814815,9.47296296 C4.42814815,8.6212963 4.67314815,7.9562963 5.16314815,7.4662963 C5.65314815,6.96462963 6.32981481,6.71962963 7.19314815,6.71962963 Z" id="Help"></path>
                        </g>
                    </g>
                </g>
            </g>
        </g>
    </g>
</svg>