<?xml version="1.0" encoding="UTF-8"?>
<svg width="13px" height="14px" viewBox="0 0 13 14" version="1.1" xmlns="http://www.w3.org/2000/svg" xmlns:xlink="http://www.w3.org/1999/xlink">
    <title>What`s New</title>
    <g id="页面-2" stroke="none" stroke-width="1" fill="none" fill-rule="evenodd">
        <g id="画板" transform="translate(-1286, -279)" fill="#3270FF" fill-rule="nonzero">
            <g id="编组-78" transform="translate(152, 184)">
                <g id="截屏2024-03-14-下午3.42.42" transform="translate(324, 73)">
                    <g id="编组-9" transform="translate(810, 18)">
                        <path d="M9.20833329,10.16 C10.5629653,10.16 11.814697,10.9071478 12.492013,12.12 C13.169329,13.3328522 13.169329,14.8271478 12.492013,16.04 C11.814697,17.2528522 10.5629653,18 9.20833329,18 C7.11425362,18 5.41666664,16.2449562 5.41666664,14.08 C5.41666664,11.9150438 7.11425362,10.16 9.20833329,10.16 Z M10.2916666,4 C11.1521353,4 11.8634775,4.69337995 11.9139583,5.58144 L11.9166666,5.68 L11.9166666,9.60000001 C11.9163487,9.89629226 11.6928442,10.1410522 11.4067444,10.1584163 C11.1206446,10.1757803 10.8709742,9.95973857 10.837125,9.66552 L10.8333333,9.60000001 L10.8333333,5.68 C10.8332971,5.3960941 10.6277669,5.15713699 10.3550416,5.12392 L10.2916666,5.12 L1.62499998,5.12 C1.35038862,5.12003746 1.11925452,5.33252399 1.08712499,5.61448001 L1.08333333,5.68 L1.08333333,15.76 C1.08336955,16.0439059 1.28889967,16.282863 1.56162499,16.31608 L1.62499998,16.32 L4.87499998,16.32 C5.16159219,16.3203287 5.39833912,16.5513979 5.41513474,16.8471811 C5.43193037,17.1429643 5.22296138,17.4010851 4.93837498,17.43608 L4.87499998,17.44 L1.62499998,17.44 C0.764531287,17.44 0.0531891645,16.7466201 0.00270833121,15.85856 L0,15.76 L0,5.68 C0,4.79040774 0.670680001,4.05498941 1.52966666,4.0028 L1.62499998,4 L10.2916666,4 Z M9.20833329,11.28 C8.24069129,11.279926 7.34652259,11.8135868 6.86268093,12.6799402 C6.37883927,13.5462936 6.37883927,14.6137064 6.86268093,15.4800598 C7.34652259,16.3464132 8.24069129,16.880074 9.20833329,16.88 C10.7040263,16.8798857 11.9164663,15.6263164 11.9164663,14.08 C11.9164663,12.5336836 10.7040263,11.2801144 9.20833329,11.28 L9.20833329,11.28 Z M9.20833329,13.8 C9.50748753,13.8 9.74999996,14.0507205 9.74999996,14.36 L9.74999996,15.48 C9.7499505,15.7892433 9.50745256,16.0399074 9.2083333,16.0399074 C8.90921403,16.0399074 8.6667161,15.7892433 8.66666663,15.48 L8.66666663,14.36 C8.66666663,14.0507206 8.90917905,13.8 9.20833329,13.8 L9.20833329,13.8 Z M9.20833329,12.12 C9.50748753,12.12 9.74999996,12.3707205 9.74999996,12.68 C9.74999996,12.9892795 9.50748753,13.24 9.20833329,13.24 C8.90917905,13.24 8.66666662,12.9892795 8.66666662,12.68 C8.66666662,12.3707205 8.90917905,12.12 9.20833329,12.12 L9.20833329,12.12 Z M4.87499998,9.60000001 C5.17411924,9.60005114 5.41657708,9.8507567 5.41657708,10.16 C5.41657708,10.4692433 5.17411924,10.7199489 4.87499998,10.72 L3.24999998,10.72 C2.95088072,10.7199489 2.70842288,10.4692433 2.70842288,10.16 C2.70842288,9.8507567 2.95088072,9.60005114 3.24999998,9.60000001 L4.87499998,9.60000001 L4.87499998,9.60000001 Z M7.04166664,6.8 C7.34078589,6.80005114 7.58324374,7.0507567 7.58324374,7.36 C7.58324374,7.6692433 7.34078589,7.91994886 7.04166664,7.92000001 L3.24999998,7.92000001 C3.05645979,7.92003309 2.87760758,7.81330493 2.78082824,7.64002674 C2.68404891,7.46674855 2.68404891,7.25325146 2.78082824,7.07997327 C2.87760758,6.90669508 3.05645979,6.79996692 3.24999998,6.8 L7.04166664,6.8 Z" id="What`s-New"></path>
                    </g>
                </g>
            </g>
        </g>
    </g>
</svg>